<svg width="512" height="512" viewBox="0 0 512 512" xmlns="http://www.w3.org/2000/svg" role="img" aria-label="Football icon">
  <defs>
    <radialGradient id="ballGradient" cx="50%" cy="35%" r="60%">
      <stop offset="0%" stop-color="#ffffff" />
      <stop offset="60%" stop-color="#f5f5f5" />
      <stop offset="100%" stop-color="#e0e0e0" />
    </radialGradient>
  </defs>
  <circle cx="256" cy="256" r="230" fill="url(#ballGradient)" stroke="#111" stroke-width="18" />
  <path d="M256 150 L318 188 L294 258 L218 258 L194 188 Z" fill="#111" />
  <path d="M256 70 L306 100 L318 188 L256 150 Z" fill="#222" />
  <path d="M256 70 L206 100 L194 188 L256 150 Z" fill="#222" />
  <path d="M318 188 L372 190 L404 250 L346 280 L294 258 Z" fill="#222" />
  <path d="M194 188 L140 190 L108 250 L166 280 L218 258 Z" fill="#222" />
  <path d="M218 258 L166 280 L188 348 L252 348 L294 258 Z" fill="#222" />
  <g stroke="#555" stroke-width="6" fill="none" stroke-linecap="round" stroke-linejoin="round" opacity="0.6">
    <path d="M256 70 C170 90 120 150 108 250" />
    <path d="M256 70 C342 90 392 150 404 250" />
    <path d="M108 250 C126 340 180 390 252 410" />
    <path d="M404 250 C386 340 332 390 260 410" />
  </g>
</svg>
